<?xml version='1.0' encoding='UTF-8' standalone='no'?>
<!-- Created with Fritzing (https://fritzing.org/) -->
<svg xmlns="http://www.w3.org/2000/svg" baseProfile="tiny" height="1.10014in" version="1.2" viewBox="0 0 50.562 79.21" width="0.70225in" x="0in"  xmlns:svg="http://www.w3.org/2000/svg" y="0in">
 <g id="watermark" >
  <g >
   <g >
    <path d="M25.83,73.01c-0.604,0,-1.131,0.325,-1.422,0.809l-2.796,0l3.96,-4.071c0.146,-0.146,0.289,-0.322,0.428,-0.521c0.149,-0.222,0.228,-0.479,0.228,-0.768c0,-0.279,-0.097,-0.518,-0.287,-0.71c-0.19,-0.188,-0.444,-0.287,-0.754,-0.287l-4.636,0c-0.305,0,-0.555,0.06,-0.742,0.17c-0.219,0.13,-0.33,0.368,-0.33,0.707c0,0.329,0.111,0.562,0.33,0.692c0.188,0.111,0.438,0.168,0.742,0.168l3.148,0l-3.974,4.086c-0.146,0.147,-0.289,0.315,-0.425,0.504c-0.153,0.212,-0.23,0.472,-0.23,0.771c0,0.28,0.096,0.521,0.288,0.711c0.188,0.188,0.442,0.285,0.754,0.285l4.315,0c0.293,0.467,0.812,0.776,1.4,0.776c0.916,0,1.66,-0.744,1.66,-1.661C27.489,73.755,26.744,73.01,25.83,73.01zM25.83,75.273c-0.334,0,-0.604,-0.271,-0.604,-0.604c0,-0.333,0.27,-0.604,0.604,-0.604c0.332,0,0.604,0.271,0.604,0.604C26.433,75.004,26.162,75.273,25.83,75.273z" fill="#8C8C8C" />
    <path d="M8.887,62.968c-0.914,0,-1.659,0.745,-1.659,1.66c0,0.916,0.745,1.66,1.659,1.66s1.658,-0.744,1.658,-1.66C10.547,63.713,9.803,62.968,8.887,62.968zM8.888,65.231c-0.333,0,-0.604,-0.27,-0.604,-0.603s0.271,-0.603,0.604,-0.603c0.331,0,0.604,0.27,0.604,0.603S9.219,65.231,8.888,65.231z" fill="#8C8C8C" />
    <path d="M17.408,67.63c-0.193,-0.111,-0.439,-0.169,-0.732,-0.169l-1.465,0L15.211,64.939c0,-0.292,-0.057,-0.538,-0.166,-0.729C14.955,64.053,14.762,63.868,14.352,63.868c-0.34,0,-0.578,0.116,-0.709,0.342c-0.109,0.193,-0.167,0.438,-0.167,0.729l0,2.521l-0.481,0c-0.295,0,-0.539,0.06,-0.731,0.169c-0.228,0.129,-0.341,0.368,-0.341,0.708c0,0.412,0.185,0.603,0.341,0.692c0.192,0.111,0.438,0.168,0.731,0.168l0.481,0l0,4.362c0,0.277,0.026,0.533,0.081,0.768c0.056,0.246,0.154,0.464,0.298,0.645c0.146,0.186,0.345,0.332,0.595,0.436c0.241,0.098,0.555,0.146,0.93,0.146l0.896,0c0.292,0,0.539,-0.054,0.731,-0.166c0.154,-0.089,0.341,-0.281,0.341,-0.693c0,-0.338,-0.114,-0.578,-0.341,-0.709c-0.192,-0.109,-0.439,-0.168,-0.731,-0.168l-0.821,0c-0.138,0,-0.19,-0.019,-0.207,-0.024c-0.014,-0.034,-0.035,-0.103,-0.035,-0.231L15.213,69.198l1.465,0c0.295,0,0.541,-0.057,0.734,-0.168c0.152,-0.09,0.34,-0.28,0.34,-0.692C17.748,67.998,17.635,67.759,17.408,67.63z" fill="#8C8C8C" />
    <path d="M8.953,67.46l-1.191,0c-0.292,0,-0.538,0.059,-0.731,0.169c-0.226,0.129,-0.341,0.368,-0.341,0.708c0,0.412,0.188,0.604,0.341,0.691c0.193,0.113,0.439,0.168,0.731,0.168l0.544,0l0,5.362c0,0.293,0.057,0.539,0.167,0.73c0.131,0.227,0.367,0.341,0.708,0.341c0.411,0,0.604,-0.187,0.692,-0.341c0.111,-0.191,0.168,-0.438,0.168,-0.73L10.041,68.548c0,-0.386,-0.084,-0.656,-0.256,-0.83C9.61,67.546,9.34,67.46,8.953,67.46z" fill="#8C8C8C" />
    <path d="M5.118,67.63c-0.193,-0.111,-0.44,-0.169,-0.732,-0.169l-0.604,0c-0.25,0,-0.498,0.063,-0.734,0.187c-0.226,0.119,-0.433,0.271,-0.616,0.453l-0.644,0.604l0,-0.247c0,-0.291,-0.055,-0.538,-0.168,-0.729c-0.128,-0.228,-0.368,-0.34,-0.707,-0.34c-0.41,0,-0.604,0.184,-0.693,0.34c-0.11,0.191,-0.167,0.438,-0.167,0.729l0,4.801c-0.475,0.293,-0.791,0.816,-0.791,1.412c0,0.917,0.745,1.661,1.658,1.661c0.916,0,1.66,-0.744,1.66,-1.661c0,-0.596,-0.317,-1.119,-0.792,-1.412l0,-2.21l1.738,-1.564c0.1,-0.09,0.199,-0.164,0.297,-0.217c0.084,-0.045,0.174,-0.067,0.274,-0.067l0.288,0c0.292,0,0.539,-0.056,0.732,-0.169c0.155,-0.088,0.339,-0.279,0.339,-0.691C5.458,67.998,5.343,67.759,5.118,67.63zM0.919,75.273c-0.332,0,-0.603,-0.271,-0.603,-0.604c0,-0.333,0.271,-0.604,0.603,-0.604c0.333,0,0.604,0.271,0.604,0.604C1.523,75.004,1.252,75.273,0.919,75.273z" fill="#8C8C8C" />
    <path d="M-1.598,64.111c-0.193,-0.111,-0.44,-0.167,-0.731,-0.167l-0.59,0c-0.2,0,-0.389,0.004,-0.562,0.016c-0.176,0.009,-0.345,0.035,-0.506,0.07c-0.168,0.041,-0.336,0.109,-0.496,0.202c-0.158,0.093,-0.319,0.222,-0.48,0.382c-0.334,0.314,-0.554,0.656,-0.652,1.017c-0.094,0.348,-0.143,0.735,-0.143,1.151l0,0.678l-0.483,0c-0.292,0,-0.539,0.059,-0.73,0.169c-0.227,0.13,-0.342,0.369,-0.342,0.708c0,0.412,0.185,0.604,0.341,0.693c0.191,0.111,0.438,0.166,0.73,0.166l0.483,0l0,5.362c0,0.293,0.057,0.539,0.167,0.73c0.13,0.227,0.367,0.341,0.708,0.341c0.411,0,0.603,-0.187,0.692,-0.341c0.111,-0.191,0.168,-0.438,0.168,-0.73l0,-5.36l0.92,0c0.293,0,0.54,-0.057,0.732,-0.168c0.155,-0.09,0.34,-0.28,0.34,-0.692c0,-0.34,-0.114,-0.579,-0.34,-0.708c-0.189,-0.111,-0.436,-0.17,-0.729,-0.17l-0.92,0l0,-0.678c0,-0.218,0.019,-0.41,0.056,-0.571c0.032,-0.141,0.103,-0.261,0.218,-0.367l0.002,-0.004l0.002,-0.002c0.082,-0.082,0.176,-0.126,0.29,-0.136c0.15,-0.015,0.339,-0.022,0.564,-0.022l0.56,0c0.291,0,0.539,-0.058,0.731,-0.168c0.154,-0.088,0.339,-0.281,0.339,-0.693C-1.258,64.48,-1.373,64.241,-1.598,64.111z" fill="#8C8C8C" />
    <path d="M50.395,67.728c-0.089,-0.156,-0.282,-0.34,-0.693,-0.34c-0.339,0,-0.578,0.113,-0.707,0.34c-0.078,0.133,-0.127,0.293,-0.152,0.477l-0.021,-0.021c-0.216,-0.236,-0.466,-0.42,-0.747,-0.539c-0.277,-0.119,-0.563,-0.183,-0.849,-0.183l-0.709,0c-0.249,0,-0.466,0.015,-0.64,0.041c-0.182,0.026,-0.352,0.074,-0.51,0.14c-0.158,0.066,-0.313,0.15,-0.459,0.254c-0.139,0.097,-0.303,0.226,-0.486,0.377c-0.188,0.156,-0.342,0.302,-0.463,0.434c-0.127,0.141,-0.23,0.293,-0.306,0.455c-0.069,0.16,-0.122,0.337,-0.147,0.523c-0.026,0.178,-0.041,0.391,-0.041,0.631l0,2.386c0,0.24,0.015,0.451,0.041,0.631c0.025,0.188,0.078,0.361,0.147,0.521c0.074,0.164,0.179,0.318,0.306,0.457c0.119,0.129,0.274,0.274,0.463,0.433c0.186,0.153,0.35,0.28,0.486,0.379c0.146,0.103,0.299,0.188,0.459,0.254c0.158,0.065,0.329,0.112,0.51,0.14c0.174,0.026,0.389,0.039,0.64,0.039l0.709,0c0.298,0,0.591,-0.066,0.87,-0.199c0.244,-0.114,0.492,-0.291,0.73,-0.523l0,1.434c0,0.18,-0.025,0.334,-0.072,0.465c-0.043,0.119,-0.159,0.258,-0.344,0.406c-0.154,0.127,-0.309,0.217,-0.457,0.264c-0.15,0.049,-0.341,0.074,-0.563,0.074l-2.203,0c-0.293,0,-0.538,0.055,-0.732,0.166c-0.152,0.088,-0.34,0.282,-0.34,0.692c0,0.341,0.115,0.579,0.34,0.71c0.194,0.109,0.439,0.167,0.732,0.167l2.326,0c0.247,0,0.463,-0.015,0.638,-0.041c0.179,-0.026,0.351,-0.073,0.513,-0.14c0.153,-0.064,0.31,-0.15,0.455,-0.254c0.143,-0.101,0.305,-0.227,0.487,-0.379c0.185,-0.153,0.343,-0.299,0.463,-0.431c0.128,-0.141,0.229,-0.294,0.304,-0.456c0.071,-0.162,0.123,-0.338,0.148,-0.523c0.025,-0.182,0.041,-0.393,0.041,-0.631l0,-7.898C50.562,68.166,50.508,67.919,50.395,67.728zM48.826,72.188c0,0.188,-0.062,0.35,-0.188,0.49c-0.15,0.172,-0.394,0.403,-0.716,0.686l-0.002,0.003l-0.002,0.004c-0.139,0.13,-0.291,0.237,-0.453,0.325c-0.148,0.082,-0.325,0.121,-0.526,0.121L46.638,73.817c-0.222,0,-0.41,-0.021,-0.563,-0.072c-0.148,-0.049,-0.301,-0.137,-0.453,-0.264c-0.231,-0.186,-0.315,-0.322,-0.346,-0.404c-0.049,-0.131,-0.072,-0.285,-0.072,-0.465l0,-2.206c0,-0.18,0.023,-0.336,0.072,-0.467c0.029,-0.082,0.113,-0.217,0.346,-0.403c0.152,-0.127,0.305,-0.216,0.453,-0.265c0.153,-0.049,0.342,-0.072,0.563,-0.072l0.301,0c0.212,0,0.388,0.037,0.526,0.113c0.152,0.082,0.308,0.191,0.457,0.324c0.322,0.293,0.564,0.529,0.716,0.7c0.128,0.146,0.188,0.304,0.188,0.492L48.826,72.188z" fill="#8C8C8C" />
    <path d="M30.416,62.968c-0.914,0,-1.66,0.745,-1.66,1.66c0,0.916,0.746,1.66,1.66,1.66s1.66,-0.744,1.66,-1.66C32.076,63.713,31.33,62.968,30.416,62.968zM30.416,65.231c-0.332,0,-0.604,-0.27,-0.604,-0.603s0.271,-0.603,0.604,-0.603s0.604,0.27,0.604,0.603C31.02,64.961,30.748,65.231,30.416,65.231z" fill="#8C8C8C" />
    <path d="M41.102,73.236l-0.107,-3.419c-0.011,-0.178,-0.021,-0.338,-0.031,-0.489c-0.01,-0.162,-0.037,-0.322,-0.082,-0.476c-0.045,-0.158,-0.11,-0.309,-0.198,-0.453c-0.093,-0.146,-0.216,-0.289,-0.37,-0.42c-0.225,-0.192,-0.443,-0.334,-0.646,-0.416c-0.207,-0.084,-0.461,-0.127,-0.754,-0.127l-1.012,0c-0.259,0,-0.501,0.058,-0.716,0.164c-0.197,0.098,-0.39,0.203,-0.572,0.315l-0.003,0.002l-0.003,0.003l-0.837,0.555l0,-0.041c0,-0.291,-0.057,-0.539,-0.168,-0.733c-0.129,-0.226,-0.367,-0.339,-0.707,-0.339c-0.411,0,-0.604,0.185,-0.693,0.339c-0.109,0.194,-0.168,0.438,-0.168,0.733l0,6.099c0,0.295,0.059,0.539,0.168,0.734c0.09,0.153,0.282,0.338,0.693,0.338c0.34,0,0.578,-0.114,0.707,-0.338c0.111,-0.195,0.168,-0.439,0.168,-0.734L35.771,70.498l1.953,-1.215c0.04,-0.024,0.082,-0.048,0.121,-0.063c0.031,-0.016,0.07,-0.025,0.115,-0.031c0.049,-0.012,0.117,-0.016,0.195,-0.016l0.362,0c0.188,0,0.334,0.021,0.435,0.059c0.082,0.029,0.143,0.076,0.18,0.143c0.05,0.078,0.08,0.18,0.098,0.303c0.02,0.139,0.034,0.309,0.045,0.504l0.096,3.097c-0.457,0.297,-0.762,0.811,-0.762,1.394c0,0.917,0.746,1.661,1.66,1.661c0.916,0,1.66,-0.744,1.66,-1.661C41.928,74.061,41.595,73.523,41.102,73.236zM40.268,75.273c-0.334,0,-0.602,-0.271,-0.602,-0.604c0,-0.333,0.268,-0.604,0.602,-0.604c0.333,0,0.604,0.271,0.604,0.604C40.873,75.004,40.601,75.273,40.268,75.273z" fill="#8C8C8C" />
    <path d="M30.479,67.46l-1.193,0c-0.293,0,-0.539,0.059,-0.731,0.169c-0.226,0.129,-0.341,0.368,-0.341,0.708c0,0.412,0.186,0.604,0.341,0.691c0.192,0.113,0.438,0.168,0.731,0.168l0.545,0l0,5.362c0,0.293,0.055,0.539,0.168,0.73c0.127,0.227,0.365,0.341,0.707,0.341c0.41,0,0.604,-0.187,0.691,-0.341c0.111,-0.191,0.17,-0.438,0.17,-0.73L31.567,68.548c0,-0.386,-0.085,-0.656,-0.259,-0.83C31.136,67.546,30.863,67.46,30.479,67.46z" fill="#8C8C8C" />
   </g>
  </g>
 </g>
 <g partID="855154230">
  <g id="breadboard" >
   <rect fill="#919191" height="3.148" id="connector0pin" width="2.14" x="20.073"  y="53.018"/>
   <rect fill="#919191" height="3.146" id="connector1pin" width="2.159" x="27.292"  y="53.018"/>
   <g fill="#919191" height="0.4" id="connector0terminal" width="2.14" x="20.073"  y="55.768"/>
   <g fill="#919191" height="0.402" id="connector1terminal" width="2.159" x="27.292"  y="55.766"/>
   <rect fill="#8B8B8B" height="8.24" id="bb" width="2.994" x="19.925"  y="47.928"/>
   <rect fill="#8B8B8B" height="8.24" id="aa" width="2.994" x="27.111"  y="47.928"/>
   <path d="M21.416,37.566l0,10.361" fill="none" stroke="#000000" stroke-width="3" />
   <path d="M28.643,37.566c0,0,0,6.123,0,10.361" fill="none" stroke="#000000" stroke-width="3" />
   <ellipse cx="25.014" cy="15.211" fill="#8B8B8B" rx="17.54" ry="7.316" />
   <path d="M7.474,35.217c0,4.043,7.854,7.316,17.54,7.316c9.688,0,17.54,-3.273,17.54,-7.316L42.554,15.211c0,4.042,-7.853,7.316,-17.54,7.316c-9.687,0,-17.54,-3.273,-17.54,-7.316L7.474,35.217z" fill="#262626" />
   <g >
    <path d="M7.474,15.211l0,20.004c0,2.553,3.142,4.801,7.893,6.109L15.367,21.319C10.616,20.009,7.474,17.765,7.474,15.211z" enable-background="new    " opacity="0.63" />
   </g>
   <path d="M41.947,18.347l0,17.509c0.385,-0.604,0.607,-1.234,0.607,-1.889L42.554,16.46C42.554,17.114,42.331,17.744,41.947,18.347z" fill="#8B8B8B" />
   <g >
    <g >
     <g enable-background="new    " >
      <g enable-background="new    " >
       <g enable-background="new    " >
        <path d="M0.065,24.584l50.432,0c-0.011,0.047,-0.03,0.088,-0.06,0.123c-0.03,0.035,-0.068,0.063,-0.116,0.086s-0.104,0.04,-0.168,0.051c-0.064,0.011,-0.138,0.017,-0.217,0.017l-4.898,0L42.58,24.861l-2.463,0l-4.938,0l-4.947,0l-4.954,0L22.8,24.861l-2.478,0l-2.477,0l-2.474,0l-2.471,0l-2.47,0L7.967,24.861l-2.46,0L3.051,24.861L0.602,24.861c-0.076,0,-0.146,-0.006,-0.207,-0.017c-0.062,-0.011,-0.116,-0.028,-0.161,-0.051c-0.046,-0.023,-0.083,-0.051,-0.112,-0.086C0.093,24.672,0.075,24.631,0.065,24.584" fill="#141414" />
       </g>
      </g>
      <g >
       <polygon fill="#131313" points="50.552,24.313,50.496,24.584,0.065,24.584,0.007,24.313" />
      </g>
      <g enable-background="new    " >
       <g enable-background="new    " >
        <polyline fill="#535353" points="39.699,10.357,10.01,10.357,10.008,10.354,10.006,10.351,10.004,10.348,10.002,10.344,39.705,10.344,39.704,10.348,39.703,10.351,39.701,10.354,39.699,10.357" />
        <polyline fill="#4B4B4B" points="39.705,10.344,10.002,10.344,10,10.34,9.998,10.336,9.996,10.332,9.994,10.328,39.714,10.328,39.712,10.332,39.71,10.336,39.707,10.34,39.705,10.344" />
        <polyline fill="#404040" points="39.714,10.328,9.994,10.328,9.991,10.324,9.989,10.32,9.987,10.316,9.984,10.312,39.722,10.312,39.72,10.316,39.718,10.32,39.716,10.324,39.714,10.328" />
        <polyline fill="#262626" points="39.722,10.312,9.984,10.312,9.982,10.308,9.979,10.304,9.977,10.3,9.974,10.296,39.732,10.296,39.73,10.3,39.727,10.304,39.724,10.308,39.722,10.312" />
        <polyline fill="#252525" points="39.732,10.296,9.974,10.296,9.972,10.291,9.97,10.288,9.968,10.284,9.966,10.28,39.741,10.28,39.738,10.284,39.736,10.288,39.734,10.291,39.732,10.296" />
        <polyline fill="#242424" points="39.741,10.28,9.966,10.28,9.964,10.276,9.961,10.271,9.959,10.268,9.957,10.264,39.749,10.264,39.746,10.268,39.745,10.271,39.743,10.276,39.741,10.28" />
        <polyline fill="#242424" points="39.749,10.264,9.957,10.264,9.955,10.26,9.952,10.256,9.95,10.252,9.948,10.248,39.757,10.248,39.755,10.252,39.753,10.256,39.751,10.26,39.749,10.264" />
        <polyline fill="#232323" points="39.757,10.248,9.948,10.248,9.946,10.244,9.943,10.24,9.941,10.236,9.939,10.232,39.765,10.232,39.763,10.236,39.761,10.24,39.76,10.244,39.757,10.248" />
        <polyline fill="#222222" points="39.765,10.232,9.939,10.232,9.936,10.228,9.934,10.225,9.931,10.221,9.929,10.217,39.775,10.217,39.773,10.221,39.771,10.225,39.768,10.228,39.765,10.232" />
        <polyline fill="#212121" points="39.775,10.217,9.929,10.217,9.927,10.213,9.925,10.209,9.923,10.205,9.921,10.202,39.784,10.202,39.781,10.205,39.779,10.209,39.777,10.213,39.775,10.217" />
        <polyline fill="#212121" points="39.784,10.202,9.921,10.202,9.917,10.196,9.914,10.19,9.911,10.185,9.908,10.18,39.795,10.18,39.792,10.185,39.789,10.19,39.787,10.196,39.784,10.202" />
        <polyline fill="#202020" points="39.795,10.18,9.908,10.18,9.905,10.174,9.901,10.168,9.897,10.162,9.894,10.156,39.809,10.156,39.804,10.162,39.802,10.168,39.798,10.174,39.795,10.18" />
        <polyline fill="#1F1F1F" points="39.809,10.156,9.894,10.156,9.89,10.15,9.886,10.144,9.884,10.139,9.88,10.133,39.822,10.133,39.819,10.139,39.815,10.144,39.812,10.15,39.809,10.156" />
        <polyline fill="#1E1E1E" points="39.822,10.133,9.88,10.133,9.877,10.127,9.873,10.121,9.87,10.115,9.866,10.109,39.835,10.109,39.831,10.115,39.829,10.121,39.825,10.127,39.822,10.133" />
        <polyline fill="#1E1E1E" points="39.835,10.109,9.866,10.109,9.863,10.103,9.859,10.098,9.856,10.092,9.852,10.087,39.847,10.087,39.844,10.092,39.841,10.098,39.838,10.103,39.835,10.109" />
        <polyline fill="#1D1D1D" points="39.847,10.087,9.852,10.087,9.848,10.081,9.845,10.075,9.842,10.07,9.839,10.064,39.861,10.064,39.858,10.07,39.855,10.075,39.851,10.081,39.847,10.087" />
        <polyline fill="#1C1C1C" points="39.861,10.064,9.839,10.064,9.834,10.057,9.83,10.049,9.826,10.042,9.821,10.035,39.878,10.035,39.873,10.042,39.87,10.049,39.866,10.057,39.861,10.064" />
        <polyline fill="#1B1B1B" points="39.878,10.035,9.821,10.035,9.814,10.023,9.807,10.013,9.801,10.002,9.794,9.992,39.904,9.992,39.897,10.002,39.89,10.013,39.884,10.023,39.878,10.035" />
        <polyline fill="#1B1B1B" points="39.904,9.992,9.794,9.992,9.788,9.981,9.781,9.971,9.775,9.96,9.768,9.95,39.927,9.95,39.922,9.96,39.915,9.971,39.91,9.981,39.904,9.992" />
        <polyline fill="#1A1A1A" points="39.927,9.95,9.768,9.95,9.76,9.938,9.754,9.927,9.747,9.916,9.74,9.905,39.955,9.905,39.949,9.916,39.942,9.927,39.935,9.938,39.927,9.95" />
        <path d="M39.955,9.905L9.74,9.905C9.736,9.899,9.732,9.892,9.728,9.886C9.723,9.88,9.719,9.873,9.716,9.867S9.708,9.855,9.704,9.849C9.7,9.843,9.696,9.837,9.692,9.831l30.309,0c-0.004,0.006,-0.007,0.012,-0.011,0.018c-0.004,0.006,-0.008,0.012,-0.012,0.018c-0.005,0.006,-0.009,0.012,-0.013,0.019C39.962,9.893,39.958,9.899,39.955,9.905" fill="#191919" />
        <path d="M40,9.832L9.692,9.832C9.687,9.824,9.681,9.817,9.677,9.81c-0.005,-0.007,-0.01,-0.015,-0.015,-0.021c-0.005,-0.007,-0.01,-0.015,-0.015,-0.021C9.641,9.761,9.636,9.754,9.633,9.747l30.422,0c-0.005,0.007,-0.009,0.014,-0.014,0.021c-0.005,0.007,-0.009,0.014,-0.014,0.021c-0.005,0.007,-0.011,0.014,-0.015,0.021C40.01,9.817,40.005,9.824,40,9.832" fill="#181818" />
        <path d="M40.055,9.746L9.634,9.746C9.626,9.735,9.619,9.724,9.612,9.714C9.605,9.703,9.596,9.693,9.59,9.683c-0.008,-0.01,-0.015,-0.021,-0.021,-0.03s-0.015,-0.02,-0.021,-0.029l30.593,0c-0.007,0.009,-0.013,0.02,-0.021,0.029c-0.006,0.01,-0.014,0.02,-0.021,0.03c-0.007,0.01,-0.014,0.021,-0.021,0.031C40.071,9.724,40.063,9.734,40.055,9.746" fill="#181818" />
        <path d="M40.138,9.623L9.546,9.623C9.534,9.606,9.522,9.59,9.509,9.574C9.496,9.558,9.485,9.543,9.472,9.529C9.461,9.515,9.45,9.501,9.438,9.487C9.427,9.474,9.416,9.461,9.405,9.448l30.867,0C40.26,9.46,40.251,9.473,40.24,9.487s-0.021,0.028,-0.032,0.042c-0.012,0.015,-0.021,0.03,-0.034,0.045C40.162,9.589,40.151,9.606,40.138,9.623" fill="#171717" />
        <path d="M40.273,9.448L9.406,9.448C9.383,9.422,9.361,9.398,9.34,9.377c-0.021,-0.021,-0.041,-0.04,-0.06,-0.056C9.26,9.305,9.242,9.292,9.224,9.28C9.207,9.269,9.191,9.26,9.176,9.254l31.316,0c-0.015,0.006,-0.03,0.015,-0.047,0.026c-0.017,0.011,-0.033,0.025,-0.052,0.041c-0.02,0.017,-0.037,0.035,-0.059,0.056C40.316,9.398,40.294,9.422,40.273,9.448" fill="#161616" />
        <polyline fill="#151515" points="40.492,9.255,9.176,9.255,9.163,9.25,9.15,9.247,9.138,9.245,9.127,9.244,12.255,9.244,15.391,9.244,18.534,9.244,21.68,9.244,24.829,9.244,26.404,9.244,27.978,9.244,31.125,9.244,34.269,9.244,35.839,9.244,37.407,9.244,40.538,9.244,40.527,9.245,40.514,9.247,40.503,9.25,40.492,9.255" />
       </g>
      </g>
      <g >
       <path d="M39.699,10.357c0.687,1.017,1.41,2.089,2.129,3.155s1.432,2.124,2.099,3.112c0.667,0.988,1.287,1.907,1.817,2.693c0.531,0.787,0.973,1.441,1.283,1.901c-3.312,0,-6.857,0,-10.524,0c-3.666,0,-7.453,0,-11.246,0s-7.591,0,-11.28,0c-3.69,0,-7.271,0,-10.63,0c0.293,-0.478,0.703,-1.146,1.191,-1.942s1.055,-1.719,1.661,-2.708c0.605,-0.989,1.252,-2.042,1.899,-3.098c0.648,-1.056,1.299,-2.115,1.911,-3.114c2.376,0,4.822,0,7.305,0c2.481,0,5,0,7.52,0c2.521,0,5.041,0,7.529,0C34.852,10.357,37.309,10.357,39.699,10.357z" fill="#212121" />
      </g>
      <g enable-background="new    " >
       <g enable-background="new    " >
        <polyline fill="#535353" points="10.01,10.357,3.346,21.219,3.344,21.22,3.341,21.222,3.338,21.224,3.335,21.225,10.006,10.351,10.007,10.352,10.008,10.354,10.009,10.355,10.01,10.357" />
        <polyline fill="#4B4B4B" points="10.006,10.351,3.335,21.225,3.332,21.227,3.329,21.229,3.325,21.231,3.321,21.233,10.002,10.343,10.003,10.345,10.004,10.347,10.005,10.349,10.006,10.351" />
        <polyline fill="#404040" points="10.002,10.343,3.321,21.233,3.318,21.235,3.314,21.237,3.311,21.239,3.306,21.241,9.997,10.335,9.998,10.337,9.999,10.339,10.001,10.341,10.002,10.343" />
        <polyline fill="#262626" points="9.997,10.335,3.306,21.241,3.303,21.243,3.3,21.245,3.297,21.247,3.293,21.248,9.993,10.328,9.994,10.33,9.995,10.331,9.996,10.333,9.997,10.335" />
        <polyline fill="#252525" points="9.993,10.328,3.293,21.248,3.289,21.251,3.286,21.253,3.283,21.255,3.279,21.257,9.989,10.32,9.99,10.322,9.991,10.324,9.992,10.326,9.993,10.328" />
        <polyline fill="#242424" points="9.989,10.32,3.279,21.257,3.275,21.259,3.272,21.261,3.268,21.263,3.264,21.265,9.984,10.312,9.985,10.314,9.986,10.316,9.988,10.318,9.989,10.32" />
        <polyline fill="#242424" points="9.984,10.312,3.264,21.265,3.261,21.267,3.258,21.269,3.254,21.27,3.251,21.272,9.98,10.304,9.981,10.306,9.982,10.308,9.983,10.31,9.984,10.312" />
        <polyline fill="#232323" points="9.98,10.304,3.251,21.272,3.247,21.274,3.244,21.276,3.241,21.279,3.237,21.281,9.974,10.296,9.976,10.298,9.977,10.3,9.979,10.302,9.98,10.304" />
        <polyline fill="#222222" points="9.974,10.296,3.237,21.281,3.233,21.283,3.23,21.285,3.226,21.287,3.222,21.289,9.97,10.289,9.971,10.29,9.972,10.292,9.974,10.294,9.974,10.296" />
        <polyline fill="#212121" points="9.97,10.289,3.222,21.289,3.219,21.29,3.216,21.292,3.212,21.294,3.209,21.297,9.967,10.281,9.968,10.283,9.969,10.285,9.969,10.287,9.97,10.289" />
        <polyline fill="#212121" points="9.967,10.281,3.209,21.297,3.205,21.299,3.202,21.301,3.199,21.303,3.195,21.305,9.962,10.273,9.963,10.275,9.964,10.277,9.966,10.279,9.967,10.281" />
        <polyline fill="#202020" points="9.962,10.273,3.195,21.305,3.191,21.307,3.188,21.309,3.184,21.31,3.18,21.312,9.958,10.266,9.959,10.268,9.96,10.269,9.961,10.271,9.962,10.273" />
        <polyline fill="#1F1F1F" points="9.958,10.266,3.18,21.312,3.177,21.314,3.174,21.316,3.17,21.319,3.167,21.321,9.954,10.258,9.955,10.26,9.955,10.262,9.957,10.264,9.958,10.266" />
        <polyline fill="#1E1E1E" points="9.954,10.258,3.167,21.321,3.163,21.323,3.16,21.325,3.157,21.327,3.153,21.329,9.949,10.25,9.95,10.252,9.952,10.254,9.953,10.256,9.954,10.258" />
        <polyline fill="#1E1E1E" points="9.949,10.25,3.153,21.329,3.15,21.331,3.146,21.333,3.141,21.335,3.138,21.337,9.945,10.243,9.946,10.245,9.947,10.247,9.948,10.248,9.949,10.25" />
        <polyline fill="#1D1D1D" points="9.945,10.243,3.138,21.337,3.135,21.339,3.132,21.341,3.129,21.343,3.125,21.345,9.94,10.235,9.942,10.237,9.943,10.239,9.944,10.241,9.945,10.243" />
        <polyline fill="#1C1C1C" points="9.94,10.235,3.125,21.345,3.121,21.347,3.119,21.349,3.115,21.351,3.111,21.353,9.936,10.228,9.937,10.23,9.938,10.232,9.939,10.234,9.94,10.235" />
        <polyline fill="#1B1B1B" points="9.936,10.228,3.111,21.353,3.108,21.355,3.104,21.357,3.101,21.359,3.097,21.361,9.931,10.221,9.932,10.223,9.934,10.225,9.935,10.226,9.936,10.228" />
        <polyline fill="#1B1B1B" points="9.931,10.221,3.097,21.361,3.094,21.363,3.091,21.365,3.087,21.367,3.083,21.369,9.927,10.213,9.928,10.215,9.929,10.217,9.93,10.219,9.931,10.221" />
        <polyline fill="#1A1A1A" points="9.927,10.213,3.083,21.369,3.08,21.371,3.077,21.373,3.073,21.375,3.07,21.377,9.923,10.206,9.924,10.207,9.925,10.209,9.927,10.211,9.927,10.213" />
        <polyline fill="#191919" points="9.923,10.206,3.07,21.377,3.066,21.379,3.063,21.381,3.059,21.383,3.055,21.385,9.919,10.198,9.92,10.2,9.921,10.202,9.922,10.204,9.923,10.206" />
        <polyline fill="#181818" points="9.919,10.198,3.055,21.385,3.043,21.393,3.031,21.4,3.018,21.407,3.006,21.415,9.903,10.172,9.907,10.178,9.911,10.185,9.915,10.192,9.919,10.198" />
        <polyline fill="#181818" points="9.903,10.172,3.006,21.415,2.992,21.423,2.978,21.431,2.964,21.439,2.951,21.448,9.885,10.143,9.89,10.15,9.895,10.157,9.899,10.164,9.903,10.172" />
        <polyline fill="#171717" points="9.885,10.143,2.951,21.448,2.937,21.456,2.923,21.464,2.91,21.473,2.896,21.48,9.869,10.114,9.873,10.121,9.877,10.128,9.882,10.136,9.885,10.143" />
        <polyline fill="#161616" points="9.869,10.114,2.896,21.48,2.882,21.489,2.869,21.497,2.855,21.505,2.841,21.514,9.852,10.086,9.856,10.093,9.861,10.1,9.865,10.107,9.869,10.114" />
        <polyline fill="#151515" points="9.852,10.086,2.841,21.514,2.828,21.522,2.814,21.53,2.801,21.539,2.787,21.547,9.835,10.058,9.839,10.065,9.844,10.072,9.847,10.079,9.852,10.086" />
        <path d="M9.835,10.058L2.787,21.547c-0.014,0.009,-0.028,0.017,-0.041,0.025c-0.014,0.009,-0.028,0.017,-0.041,0.026c-0.014,0.008,-0.027,0.017,-0.041,0.025c-0.014,0.009,-0.027,0.017,-0.041,0.026L9.785,9.976C9.789,9.983,9.793,9.99,9.798,9.997c0.004,0.007,0.008,0.014,0.014,0.021c0.004,0.007,0.008,0.014,0.013,0.021C9.827,10.044,9.831,10.051,9.835,10.058" fill="#151515" />
        <path d="M9.785,9.976L2.623,21.649c-0.295,0.187,-0.574,0.377,-0.833,0.567s-0.495,0.38,-0.707,0.564s-0.396,0.364,-0.552,0.533s-0.279,0.329,-0.369,0.475l0.435,-0.71l0.438,-0.712l0.438,-0.715l0.44,-0.718l0.442,-0.72l0.442,-0.722l0.444,-0.724l0.445,-0.725l0.445,-0.727l0.446,-0.728l0.447,-0.729l0.447,-0.729l0.448,-0.73l0.449,-0.731l0.448,-0.731l0.449,-0.731l0.447,-0.731l0.448,-0.73l0.448,-0.73L9.06,9.286C9.082,9.25,9.116,9.239,9.159,9.251C9.202,9.263,9.256,9.3,9.318,9.359C9.38,9.418,9.451,9.5,9.529,9.603C9.607,9.706,9.693,9.83,9.785,9.976" fill="#141414" />
       </g>
      </g>
      <g enable-background="new    " >
       <g enable-background="new    " >
        <path d="M47.027,21.219l-7.328,-10.861c0.002,-0.003,0.004,-0.007,0.005,-0.01c0.002,-0.003,0.004,-0.007,0.006,-0.01c0.001,-0.003,0.003,-0.006,0.005,-0.01c0.002,-0.003,0.003,-0.006,0.005,-0.009l7.38,10.939c-0.006,-0.003,-0.012,-0.007,-0.019,-0.01c-0.006,-0.003,-0.012,-0.007,-0.018,-0.01c-0.008,-0.003,-0.014,-0.007,-0.02,-0.01C47.038,21.225,47.033,21.222,47.027,21.219" fill="#535353" />
        <path d="M47.098,21.258l-7.38,-10.939c0.002,-0.004,0.005,-0.008,0.008,-0.012c0.002,-0.004,0.004,-0.008,0.007,-0.012c0.002,-0.004,0.004,-0.008,0.006,-0.012c0.003,-0.004,0.005,-0.008,0.007,-0.012l7.446,11.038c-0.008,-0.004,-0.017,-0.009,-0.023,-0.013c-0.008,-0.004,-0.015,-0.008,-0.021,-0.013c-0.008,-0.005,-0.017,-0.008,-0.023,-0.013C47.115,21.266,47.107,21.262,47.098,21.258" fill="#4B4B4B" />
        <path d="M47.192,21.308L39.746,10.27c0.002,-0.004,0.004,-0.008,0.007,-0.012c0.002,-0.004,0.004,-0.008,0.006,-0.012c0.003,-0.004,0.005,-0.008,0.007,-0.012c0.003,-0.004,0.005,-0.008,0.008,-0.012l7.512,11.136c-0.008,-0.004,-0.016,-0.008,-0.023,-0.013c-0.008,-0.004,-0.016,-0.008,-0.022,-0.013c-0.008,-0.004,-0.016,-0.008,-0.022,-0.012C47.207,21.316,47.2,21.312,47.192,21.308" fill="#404040" />
        <path d="M47.285,21.358l-7.513,-11.136c0.001,-0.003,0.003,-0.006,0.005,-0.009c0.001,-0.003,0.003,-0.006,0.005,-0.009s0.003,-0.006,0.005,-0.009s0.003,-0.006,0.005,-0.009l7.563,11.212c-0.007,-0.003,-0.013,-0.007,-0.019,-0.01s-0.012,-0.006,-0.018,-0.01c-0.006,-0.004,-0.013,-0.006,-0.019,-0.01S47.29,21.362,47.285,21.358" fill="#262626" />
        <polyline fill="#252525" points="47.355,21.398,39.791,10.186,39.794,10.181,39.798,10.175,39.801,10.169,39.803,10.163,47.402,21.424,47.389,21.418,47.378,21.411,47.367,21.405,47.355,21.398" />
        <polyline fill="#242424" points="47.402,21.424,39.803,10.163,39.807,10.157,39.811,10.151,39.815,10.145,39.818,10.14,47.449,21.451,47.437,21.444,47.425,21.437,47.413,21.431,47.402,21.424" />
        <polyline fill="#242424" points="47.449,21.451,39.818,10.14,39.821,10.134,39.824,10.128,39.828,10.123,39.83,10.117,47.495,21.477,47.483,21.471,47.471,21.464,47.46,21.457,47.449,21.451" />
        <polyline fill="#232323" points="47.495,21.477,39.83,10.117,39.833,10.111,39.837,10.105,39.84,10.1,39.843,10.094,47.54,21.504,47.53,21.497,47.518,21.49,47.506,21.484,47.495,21.477" />
        <polyline fill="#222222" points="47.54,21.504,39.843,10.094,39.846,10.089,39.849,10.083,39.853,10.078,39.857,10.072,47.586,21.53,47.576,21.523,47.564,21.517,47.552,21.51,47.54,21.504" />
        <polyline fill="#212121" points="47.586,21.53,39.857,10.072,39.86,10.066,39.863,10.061,39.866,10.055,39.87,10.05,47.632,21.557,47.621,21.55,47.61,21.543,47.597,21.537,47.586,21.53" />
        <path d="M47.632,21.557L39.869,10.05c0.001,-0.003,0.003,-0.006,0.005,-0.01c0.002,-0.003,0.004,-0.006,0.006,-0.009s0.004,-0.006,0.006,-0.009s0.003,-0.006,0.005,-0.01l7.82,11.592c-0.007,-0.004,-0.013,-0.008,-0.02,-0.012s-0.014,-0.008,-0.021,-0.012c-0.007,-0.004,-0.014,-0.008,-0.021,-0.012C47.646,21.564,47.638,21.56,47.632,21.557" fill="#212121" />
        <path d="M47.711,21.603l-7.82,-11.592c0.003,-0.003,0.005,-0.006,0.007,-0.009c0.002,-0.003,0.004,-0.006,0.006,-0.009s0.003,-0.006,0.005,-0.009s0.004,-0.006,0.006,-0.009l7.877,11.676c-0.006,-0.004,-0.013,-0.008,-0.02,-0.012c-0.007,-0.004,-0.014,-0.008,-0.021,-0.012c-0.007,-0.004,-0.014,-0.008,-0.02,-0.012C47.724,21.611,47.718,21.607,47.711,21.603" fill="#202020" />
        <path d="M47.79,21.651L39.913,9.975c0.002,-0.003,0.004,-0.006,0.006,-0.009s0.003,-0.006,0.005,-0.009c0.002,-0.003,0.004,-0.006,0.006,-0.009s0.005,-0.006,0.006,-0.009l7.935,11.76c-0.007,-0.004,-0.013,-0.008,-0.021,-0.012c-0.007,-0.004,-0.013,-0.008,-0.02,-0.012s-0.014,-0.008,-0.02,-0.012C47.803,21.659,47.797,21.655,47.79,21.651" fill="#1F1F1F" />
        <path d="M47.87,21.698l-7.935,-11.76c0.003,-0.004,0.005,-0.007,0.007,-0.011c0.002,-0.003,0.005,-0.007,0.007,-0.011c0.002,-0.004,0.004,-0.007,0.007,-0.011c0.002,-0.004,0.004,-0.007,0.006,-0.011l8.003,11.862c-0.008,-0.005,-0.016,-0.01,-0.022,-0.015s-0.017,-0.01,-0.023,-0.015c-0.007,-0.005,-0.016,-0.01,-0.023,-0.015C47.885,21.708,47.877,21.703,47.87,21.698" fill="#1E1E1E" />
        <path d="M47.964,21.757L39.961,9.894c0.004,-0.005,0.007,-0.01,0.01,-0.015c0.003,-0.005,0.007,-0.01,0.01,-0.015s0.006,-0.01,0.01,-0.015c0.003,-0.005,0.006,-0.01,0.009,-0.015l8.098,12.003c-0.011,-0.007,-0.021,-0.014,-0.031,-0.021c-0.013,-0.007,-0.022,-0.014,-0.033,-0.021c-0.011,-0.007,-0.021,-0.014,-0.033,-0.021C47.987,21.77,47.976,21.764,47.964,21.757" fill="#1E1E1E" />
        <path d="M48.095,21.839L39.998,9.836c0.003,-0.005,0.007,-0.01,0.01,-0.016s0.007,-0.01,0.011,-0.016c0.003,-0.005,0.007,-0.01,0.01,-0.015c0.003,-0.005,0.007,-0.01,0.01,-0.015l8.201,12.156c-0.012,-0.008,-0.023,-0.015,-0.035,-0.023c-0.013,-0.007,-0.024,-0.015,-0.036,-0.022c-0.012,-0.008,-0.022,-0.015,-0.035,-0.023C48.121,21.854,48.108,21.847,48.095,21.839" fill="#1D1D1D" />
        <path d="M48.239,21.93L40.038,9.774c0.005,-0.007,0.01,-0.014,0.014,-0.021c0.005,-0.007,0.011,-0.014,0.015,-0.021c0.005,-0.007,0.01,-0.014,0.014,-0.021c0.005,-0.006,0.009,-0.013,0.014,-0.02l8.346,12.37c-0.017,-0.011,-0.032,-0.022,-0.05,-0.033c-0.017,-0.011,-0.032,-0.021,-0.05,-0.032c-0.017,-0.011,-0.033,-0.022,-0.05,-0.033C48.272,21.951,48.255,21.94,48.239,21.93" fill="#1C1C1C" />
        <path d="M48.437,22.06L40.092,9.69c0.006,-0.009,0.014,-0.018,0.02,-0.027c0.006,-0.009,0.012,-0.018,0.018,-0.026c0.006,-0.009,0.013,-0.017,0.02,-0.025c0.006,-0.008,0.012,-0.017,0.018,-0.024l8.535,12.652c-0.021,-0.015,-0.043,-0.03,-0.064,-0.045c-0.021,-0.015,-0.043,-0.03,-0.064,-0.045c-0.021,-0.015,-0.044,-0.03,-0.065,-0.045C48.482,22.09,48.459,22.075,48.437,22.06" fill="#1B1B1B" />
        <path d="M48.7,22.24L40.165,9.588c0.009,-0.012,0.017,-0.024,0.025,-0.035c0.008,-0.011,0.017,-0.022,0.024,-0.033c0.009,-0.011,0.018,-0.021,0.024,-0.032s0.017,-0.02,0.023,-0.03l8.806,13.05c-0.03,-0.022,-0.061,-0.044,-0.09,-0.067c-0.03,-0.022,-0.062,-0.044,-0.092,-0.067c-0.03,-0.021,-0.062,-0.045,-0.094,-0.067C48.762,22.285,48.732,22.263,48.7,22.24" fill="#1B1B1B" />
        <path d="M49.069,22.509l-8.806,-13.05c0.014,-0.015,0.024,-0.029,0.036,-0.042c0.013,-0.013,0.023,-0.026,0.035,-0.038c0.011,-0.012,0.021,-0.023,0.032,-0.033c0.011,-0.01,0.021,-0.02,0.032,-0.029l9.178,13.604c-0.039,-0.034,-0.078,-0.067,-0.119,-0.102c-0.041,-0.034,-0.082,-0.068,-0.125,-0.103c-0.042,-0.034,-0.086,-0.069,-0.13,-0.103C49.16,22.579,49.115,22.544,49.069,22.509" fill="#1A1A1A" />
        <path d="M49.578,22.92L40.4,9.316c0.017,-0.014,0.031,-0.027,0.047,-0.037s0.029,-0.018,0.043,-0.024c0.014,-0.006,0.025,-0.009,0.038,-0.011c0.012,-0.002,0.021,0,0.032,0.003l9.646,14.3c-0.04,-0.048,-0.084,-0.098,-0.131,-0.149c-0.047,-0.051,-0.097,-0.102,-0.148,-0.155c-0.053,-0.052,-0.107,-0.105,-0.167,-0.16C49.702,23.028,49.64,22.976,49.578,22.92" fill="#191919" />
        <path d="M50.207,23.548l-9.646,-14.3c0.003,0.001,0.007,0.002,0.011,0.004c0.003,0.002,0.006,0.004,0.01,0.007c0.003,0.002,0.006,0.005,0.009,0.008c0.003,0.003,0.006,0.007,0.008,0.011l0.492,0.729l0.492,0.73l0.493,0.731l0.493,0.73l0.493,0.731l0.492,0.73l0.493,0.731l0.492,0.73l0.492,0.729l0.491,0.728l0.49,0.727l0.489,0.726l0.488,0.724l0.487,0.722l0.971,1.438l0.964,1.428l0.479,0.71l0.479,0.707c-0.012,-0.017,-0.023,-0.035,-0.036,-0.052c-0.013,-0.018,-0.025,-0.035,-0.039,-0.053s-0.027,-0.036,-0.042,-0.054S50.222,23.566,50.207,23.548" fill="#181818" />
       </g>
      </g>
      <g enable-background="new    " >
       <g enable-background="new    " >
        <polyline fill="#535353" points="3.346,21.219,47.027,21.219,47.029,21.22,47.032,21.222,47.035,21.223,47.037,21.225,3.336,21.225,3.339,21.223,3.341,21.222,3.344,21.22,3.346,21.219" />
        <polyline fill="#4B4B4B" points="3.336,21.225,47.037,21.225,47.04,21.226,47.043,21.228,47.047,21.23,47.05,21.232,3.323,21.232,3.327,21.23,3.33,21.228,3.333,21.226,3.336,21.225" />
        <polyline fill="#404040" points="3.323,21.232,47.05,21.232,47.053,21.233,47.057,21.235,47.061,21.237,47.065,21.239,3.31,21.239,3.313,21.237,3.317,21.235,3.32,21.233,3.323,21.232" />
        <polyline fill="#262626" points="3.31,21.239,47.065,21.239,47.068,21.241,47.072,21.243,47.075,21.245,47.079,21.247,3.297,21.247,3.3,21.245,3.303,21.243,3.306,21.241,3.31,21.239" />
        <polyline fill="#252525" points="3.297,21.247,47.079,21.247,47.081,21.248,47.085,21.25,47.088,21.252,47.092,21.254,3.284,21.254,3.288,21.252,3.29,21.25,3.294,21.248,3.297,21.247" />
        <polyline fill="#242424" points="3.284,21.254,47.092,21.254,47.094,21.256,47.098,21.257,47.102,21.259,47.106,21.261,3.271,21.261,3.274,21.259,3.278,21.257,3.281,21.256,3.284,21.254" />
        <polyline fill="#242424" points="3.271,21.261,47.106,21.261,47.109,21.263,47.113,21.265,47.116,21.267,47.12,21.269,3.258,21.269,3.26,21.267,3.264,21.265,3.268,21.263,3.271,21.261" />
        <polyline fill="#232323" points="3.258,21.269,47.12,21.269,47.122,21.27,47.126,21.272,47.129,21.274,47.133,21.276,3.245,21.276,3.248,21.274,3.251,21.272,3.255,21.27,3.258,21.269" />
        <polyline fill="#222222" points="3.245,21.276,47.133,21.276,47.135,21.278,47.139,21.28,47.143,21.281,47.147,21.283,3.232,21.283,3.235,21.281,3.239,21.28,3.242,21.278,3.245,21.276" />
        <polyline fill="#212121" points="3.232,21.283,47.147,21.283,47.15,21.285,47.154,21.287,47.157,21.289,47.161,21.291,3.219,21.291,3.221,21.289,3.224,21.287,3.229,21.285,3.232,21.283" />
        <polyline fill="#212121" points="3.219,21.291,47.161,21.291,47.163,21.292,47.167,21.294,47.17,21.296,47.174,21.298,3.206,21.298,3.209,21.296,3.213,21.294,3.216,21.292,3.219,21.291" />
        <polyline fill="#202020" points="3.206,21.298,47.174,21.298,47.177,21.3,47.18,21.302,47.184,21.304,47.188,21.306,3.193,21.306,3.196,21.304,3.2,21.302,3.203,21.3,3.206,21.298" />
        <polyline fill="#1F1F1F" points="3.193,21.306,47.188,21.306,47.191,21.308,47.195,21.31,47.198,21.311,47.202,21.313,3.179,21.313,3.184,21.311,3.187,21.31,3.19,21.308,3.193,21.306" />
        <polyline fill="#1E1E1E" points="3.179,21.313,47.202,21.313,47.205,21.315,47.208,21.317,47.211,21.318,47.214,21.32,3.167,21.32,3.17,21.318,3.174,21.317,3.177,21.315,3.179,21.313" />
        <polyline fill="#1E1E1E" points="3.167,21.32,47.214,21.32,47.218,21.322,47.221,21.324,47.224,21.326,47.228,21.328,3.155,21.328,3.158,21.326,3.161,21.324,3.164,21.322,3.167,21.32" />
        <polyline fill="#1D1D1D" points="3.155,21.328,47.228,21.328,47.232,21.33,47.235,21.331,47.239,21.333,47.242,21.335,3.141,21.335,3.145,21.333,3.148,21.331,3.151,21.33,3.155,21.328" />
        <polyline fill="#1C1C1C" points="3.141,21.335,47.242,21.335,47.246,21.337,47.248,21.339,47.252,21.341,47.255,21.343,3.129,21.343,3.132,21.341,3.135,21.339,3.137,21.337,3.141,21.335" />
        <polyline fill="#1B1B1B" points="3.129,21.343,47.255,21.343,47.259,21.345,47.261,21.347,47.265,21.349,47.269,21.35,3.116,21.35,3.119,21.349,3.122,21.347,3.125,21.345,3.129,21.343" />
        <polyline fill="#1B1B1B" points="3.116,21.35,47.269,21.35,47.273,21.352,47.276,21.354,47.279,21.356,47.283,21.358,3.103,21.358,3.106,21.356,3.109,21.354,3.113,21.352,3.116,21.35" />
        <polyline fill="#1A1A1A" points="3.103,21.358,47.283,21.358,47.286,21.359,47.289,21.361,47.292,21.363,47.296,21.365,3.09,21.365,3.093,21.363,3.096,21.361,3.099,21.359,3.103,21.358" />
        <polyline fill="#191919" points="3.09,21.365,47.296,21.365,47.299,21.367,47.302,21.369,47.305,21.371,47.31,21.373,3.078,21.373,3.08,21.371,3.084,21.369,3.087,21.367,3.09,21.365" />
        <polyline fill="#181818" points="3.078,21.373,47.31,21.373,47.313,21.374,47.316,21.376,47.32,21.378,47.323,21.38,3.064,21.38,3.068,21.378,3.071,21.376,3.074,21.374,3.078,21.373" />
        <polyline fill="#181818" points="3.064,21.38,47.323,21.38,47.33,21.384,47.335,21.387,47.341,21.39,47.346,21.394,3.042,21.394,3.047,21.39,3.052,21.387,3.059,21.384,3.064,21.38" />
        <path d="M3.042,21.394l44.305,0c0.007,0.003,0.013,0.006,0.018,0.01c0.006,0.003,0.012,0.006,0.018,0.009c0.005,0.003,0.012,0.006,0.018,0.01c0.006,0.003,0.011,0.006,0.017,0.009L2.977,21.432c0.005,-0.003,0.011,-0.006,0.016,-0.009s0.011,-0.006,0.016,-0.01c0.005,-0.003,0.012,-0.006,0.017,-0.009C3.031,21.4,3.037,21.397,3.042,21.394" fill="#171717" />
        <path d="M2.977,21.432l44.437,0c0.006,0.003,0.012,0.006,0.017,0.01c0.007,0.003,0.013,0.006,0.019,0.009c0.005,0.003,0.01,0.006,0.016,0.009c0.006,0.003,0.012,0.006,0.018,0.009L2.913,21.469c0.005,-0.003,0.011,-0.006,0.016,-0.009c0.006,-0.003,0.012,-0.006,0.017,-0.01c0.005,-0.003,0.011,-0.006,0.016,-0.009C2.967,21.438,2.971,21.435,2.977,21.432" fill="#161616" />
        <path d="M2.913,21.47l44.568,0c0.006,0.003,0.011,0.006,0.017,0.01c0.006,0.003,0.012,0.006,0.017,0.01c0.007,0.003,0.013,0.006,0.018,0.009c0.006,0.003,0.012,0.006,0.017,0.01L2.849,21.509c0.006,-0.003,0.011,-0.006,0.017,-0.01c0.005,-0.003,0.011,-0.006,0.016,-0.009s0.01,-0.007,0.017,-0.01C2.903,21.476,2.909,21.473,2.913,21.47" fill="#151515" />
        <path d="M2.849,21.508l44.698,0c0.006,0.003,0.013,0.006,0.018,0.009c0.006,0.003,0.012,0.007,0.017,0.01c0.006,0.003,0.012,0.006,0.017,0.01c0.007,0.003,0.013,0.006,0.018,0.01L2.788,21.547c0.005,-0.003,0.01,-0.006,0.016,-0.01c0.006,-0.003,0.011,-0.006,0.017,-0.01c0.005,-0.003,0.011,-0.006,0.016,-0.009C2.84,21.515,2.844,21.511,2.849,21.508" fill="#151515" />
        <path d="M2.788,21.547l44.827,0c0.445,0.259,0.857,0.528,1.228,0.794c0.368,0.266,0.69,0.529,0.954,0.776s0.467,0.479,0.599,0.682c0.131,0.203,0.188,0.378,0.158,0.514L0.007,24.313c-0.027,-0.135,0.025,-0.311,0.148,-0.514c0.123,-0.204,0.314,-0.435,0.563,-0.682s0.556,-0.51,0.904,-0.776C1.972,22.075,2.365,21.806,2.788,21.547" fill="#141414" />
       </g>
      </g>
     </g>
    </g>
   </g>
   <ellipse cx="25.014" cy="15.211" fill="#DFDFDF" rx="17.54" ry="7.316" />
   <g >
    <g >
     <g enable-background="new    " >
      <g >
       <path d="M25.312,3.817c8.973,0,16.244,2.349,16.244,5.255c0,2.897,-7.271,5.247,-16.244,5.247c-8.965,0,-16.236,-2.349,-16.236,-5.247C9.076,6.166,16.347,3.817,25.312,3.817z" fill="#7A0000" />
      </g>
      <g enable-background="new    " >
       <g enable-background="new    " >
        <path d="M41.556,9.072l0,6.981c0,0.081,-0.006,0.161,-0.017,0.24L41.539,9.312C41.551,9.233,41.556,9.153,41.556,9.072" fill="#510000" />
        <path d="M41.54,9.313l0,6.981c-0.014,0.1,-0.037,0.199,-0.067,0.297L41.473,9.61C41.503,9.512,41.527,9.413,41.54,9.313" fill="#4E0000" />
        <path d="M41.472,9.61l0,6.981c-0.037,0.121,-0.089,0.241,-0.151,0.359L41.321,9.969C41.384,9.851,41.435,9.731,41.472,9.61" fill="#4C0000" />
        <path d="M41.321,9.969l0,6.981c-1.317,2.47,-7.983,4.35,-16.009,4.35c-8.965,0,-16.236,-2.349,-16.236,-5.246L9.076,9.073c0,2.897,7.271,5.247,16.236,5.247C33.337,14.319,40.003,12.439,41.321,9.969" fill="#490000" />
       </g>
      </g>
     </g>
    </g>
   </g>
   <g >
    <ellipse cx="25.296" cy="9.64" fill="#CC1414" rx="16.158" ry="6.638" />
    <g >
     <g >
      <path d="M25.295,0c8.971,-0.001,16.07,5.72,16.159,9.386c0.089,3.667,-7.007,3.832,-16.159,3.833c-9.149,0.002,-16.247,-0.166,-16.158,-3.833C9.226,5.72,16.327,0.001,25.295,0z" fill="#CC1414" />
     </g>
    </g>
   </g>
  </g>
 </g>
</svg>
